<mxfile host="app.diagrams.net" modified="2023-07-21T09:59:18.214Z" agent="Mozilla/5.0 (Windows NT 10.0; Win64; x64) AppleWebKit/537.36 (KHTML, like Gecko) Chrome/114.0.0.0 Safari/537.36 Edg/114.0.1823.82" etag="TTWzKSmVTWZ0S8QICESQ" version="21.6.3" type="github">
  <diagram name="第 1 页" id="Co3LI1neUpymdf99CH1h">
    <mxGraphModel dx="1166" dy="775" grid="1" gridSize="10" guides="1" tooltips="1" connect="1" arrows="1" fold="1" page="1" pageScale="1" pageWidth="827" pageHeight="1169" math="0" shadow="0">
      <root>
        <mxCell id="0" />
        <mxCell id="1" parent="0" />
        <mxCell id="X78qW80D-vUWjw1_UPlZ-3" value="" style="edgeStyle=orthogonalEdgeStyle;rounded=0;orthogonalLoop=1;jettySize=auto;html=1;" edge="1" parent="1" source="X78qW80D-vUWjw1_UPlZ-1" target="X78qW80D-vUWjw1_UPlZ-2">
          <mxGeometry relative="1" as="geometry" />
        </mxCell>
        <mxCell id="X78qW80D-vUWjw1_UPlZ-1" value="" style="ellipse;whiteSpace=wrap;html=1;rounded=0;shadow=0;comic=0;labelBackgroundColor=none;strokeWidth=1;fillColor=#000000;fontFamily=Verdana;fontSize=12;align=center;" vertex="1" parent="1">
          <mxGeometry x="290" y="230" width="30" height="30" as="geometry" />
        </mxCell>
        <mxCell id="X78qW80D-vUWjw1_UPlZ-5" value="" style="edgeStyle=orthogonalEdgeStyle;rounded=0;orthogonalLoop=1;jettySize=auto;html=1;" edge="1" parent="1" source="X78qW80D-vUWjw1_UPlZ-2" target="X78qW80D-vUWjw1_UPlZ-4">
          <mxGeometry relative="1" as="geometry" />
        </mxCell>
        <mxCell id="X78qW80D-vUWjw1_UPlZ-2" value="输入借款金额和分期数" style="rounded=1;whiteSpace=wrap;html=1;" vertex="1" parent="1">
          <mxGeometry x="364" y="230" width="100" height="30" as="geometry" />
        </mxCell>
        <mxCell id="X78qW80D-vUWjw1_UPlZ-7" value="" style="edgeStyle=orthogonalEdgeStyle;rounded=0;orthogonalLoop=1;jettySize=auto;html=1;" edge="1" parent="1" source="X78qW80D-vUWjw1_UPlZ-4" target="X78qW80D-vUWjw1_UPlZ-6">
          <mxGeometry relative="1" as="geometry" />
        </mxCell>
        <mxCell id="X78qW80D-vUWjw1_UPlZ-4" value="系统校验" style="rounded=1;whiteSpace=wrap;html=1;" vertex="1" parent="1">
          <mxGeometry x="364" y="290" width="100" height="30" as="geometry" />
        </mxCell>
        <mxCell id="X78qW80D-vUWjw1_UPlZ-8" style="edgeStyle=orthogonalEdgeStyle;rounded=0;orthogonalLoop=1;jettySize=auto;html=1;entryX=1;entryY=0.5;entryDx=0;entryDy=0;" edge="1" parent="1" source="X78qW80D-vUWjw1_UPlZ-6" target="X78qW80D-vUWjw1_UPlZ-2">
          <mxGeometry relative="1" as="geometry">
            <Array as="points">
              <mxPoint x="520" y="370" />
              <mxPoint x="520" y="245" />
            </Array>
          </mxGeometry>
        </mxCell>
        <mxCell id="X78qW80D-vUWjw1_UPlZ-11" value="" style="edgeStyle=orthogonalEdgeStyle;rounded=0;orthogonalLoop=1;jettySize=auto;html=1;" edge="1" parent="1" source="X78qW80D-vUWjw1_UPlZ-6" target="X78qW80D-vUWjw1_UPlZ-10">
          <mxGeometry relative="1" as="geometry" />
        </mxCell>
        <mxCell id="X78qW80D-vUWjw1_UPlZ-6" value="" style="rhombus;whiteSpace=wrap;html=1;" vertex="1" parent="1">
          <mxGeometry x="392" y="350" width="44" height="40" as="geometry" />
        </mxCell>
        <mxCell id="X78qW80D-vUWjw1_UPlZ-9" value="未通过" style="text;html=1;align=center;verticalAlign=middle;resizable=0;points=[];autosize=1;strokeColor=none;fillColor=none;" vertex="1" parent="1">
          <mxGeometry x="436" y="338" width="60" height="30" as="geometry" />
        </mxCell>
        <mxCell id="X78qW80D-vUWjw1_UPlZ-14" value="" style="edgeStyle=orthogonalEdgeStyle;rounded=0;orthogonalLoop=1;jettySize=auto;html=1;" edge="1" parent="1" source="X78qW80D-vUWjw1_UPlZ-10" target="X78qW80D-vUWjw1_UPlZ-13">
          <mxGeometry relative="1" as="geometry" />
        </mxCell>
        <mxCell id="X78qW80D-vUWjw1_UPlZ-10" value="系统校验" style="rounded=1;whiteSpace=wrap;html=1;" vertex="1" parent="1">
          <mxGeometry x="364" y="420" width="100" height="30" as="geometry" />
        </mxCell>
        <mxCell id="X78qW80D-vUWjw1_UPlZ-12" value="通过" style="text;html=1;align=center;verticalAlign=middle;resizable=0;points=[];autosize=1;strokeColor=none;fillColor=none;" vertex="1" parent="1">
          <mxGeometry x="405" y="388" width="50" height="30" as="geometry" />
        </mxCell>
        <mxCell id="X78qW80D-vUWjw1_UPlZ-25" value="" style="edgeStyle=orthogonalEdgeStyle;rounded=0;orthogonalLoop=1;jettySize=auto;html=1;" edge="1" parent="1" source="X78qW80D-vUWjw1_UPlZ-13" target="X78qW80D-vUWjw1_UPlZ-24">
          <mxGeometry relative="1" as="geometry" />
        </mxCell>
        <mxCell id="X78qW80D-vUWjw1_UPlZ-13" value="首借/非首借确定" style="rounded=1;whiteSpace=wrap;html=1;" vertex="1" parent="1">
          <mxGeometry x="510" y="420" width="100" height="30" as="geometry" />
        </mxCell>
        <mxCell id="X78qW80D-vUWjw1_UPlZ-21" style="rounded=0;orthogonalLoop=1;jettySize=auto;html=1;entryX=0.5;entryY=0;entryDx=0;entryDy=0;exitX=0.25;exitY=1;exitDx=0;exitDy=0;" edge="1" parent="1" source="X78qW80D-vUWjw1_UPlZ-15" target="X78qW80D-vUWjw1_UPlZ-17">
          <mxGeometry relative="1" as="geometry" />
        </mxCell>
        <mxCell id="X78qW80D-vUWjw1_UPlZ-22" value="" style="edgeStyle=orthogonalEdgeStyle;rounded=0;orthogonalLoop=1;jettySize=auto;html=1;" edge="1" parent="1" source="X78qW80D-vUWjw1_UPlZ-15" target="X78qW80D-vUWjw1_UPlZ-18">
          <mxGeometry relative="1" as="geometry" />
        </mxCell>
        <mxCell id="X78qW80D-vUWjw1_UPlZ-23" style="rounded=0;orthogonalLoop=1;jettySize=auto;html=1;entryX=0.5;entryY=0;entryDx=0;entryDy=0;exitX=0.75;exitY=1;exitDx=0;exitDy=0;" edge="1" parent="1" source="X78qW80D-vUWjw1_UPlZ-15" target="X78qW80D-vUWjw1_UPlZ-19">
          <mxGeometry relative="1" as="geometry" />
        </mxCell>
        <mxCell id="X78qW80D-vUWjw1_UPlZ-15" value="" style="whiteSpace=wrap;html=1;rounded=0;shadow=0;comic=0;labelBackgroundColor=none;strokeWidth=1;fillColor=#000000;fontFamily=Verdana;fontSize=12;align=center;rotation=0;" vertex="1" parent="1">
          <mxGeometry x="486.5" y="540" width="147" height="10" as="geometry" />
        </mxCell>
        <mxCell id="X78qW80D-vUWjw1_UPlZ-29" style="rounded=0;orthogonalLoop=1;jettySize=auto;html=1;entryX=0.25;entryY=0;entryDx=0;entryDy=0;" edge="1" parent="1" source="X78qW80D-vUWjw1_UPlZ-17" target="X78qW80D-vUWjw1_UPlZ-28">
          <mxGeometry relative="1" as="geometry" />
        </mxCell>
        <mxCell id="X78qW80D-vUWjw1_UPlZ-17" value="账单周期确定" style="rounded=1;whiteSpace=wrap;html=1;" vertex="1" parent="1">
          <mxGeometry x="386.5" y="580" width="100" height="30" as="geometry" />
        </mxCell>
        <mxCell id="X78qW80D-vUWjw1_UPlZ-30" style="edgeStyle=orthogonalEdgeStyle;rounded=0;orthogonalLoop=1;jettySize=auto;html=1;entryX=0.5;entryY=0;entryDx=0;entryDy=0;" edge="1" parent="1" source="X78qW80D-vUWjw1_UPlZ-18" target="X78qW80D-vUWjw1_UPlZ-28">
          <mxGeometry relative="1" as="geometry" />
        </mxCell>
        <mxCell id="X78qW80D-vUWjw1_UPlZ-18" value="下个账单日确定" style="rounded=1;whiteSpace=wrap;html=1;" vertex="1" parent="1">
          <mxGeometry x="510" y="580" width="100" height="30" as="geometry" />
        </mxCell>
        <mxCell id="X78qW80D-vUWjw1_UPlZ-31" style="rounded=0;orthogonalLoop=1;jettySize=auto;html=1;entryX=0.75;entryY=0;entryDx=0;entryDy=0;" edge="1" parent="1" source="X78qW80D-vUWjw1_UPlZ-19" target="X78qW80D-vUWjw1_UPlZ-28">
          <mxGeometry relative="1" as="geometry" />
        </mxCell>
        <mxCell id="X78qW80D-vUWjw1_UPlZ-19" value="首个账单日确定" style="rounded=1;whiteSpace=wrap;html=1;" vertex="1" parent="1">
          <mxGeometry x="633.5" y="580" width="100" height="30" as="geometry" />
        </mxCell>
        <mxCell id="X78qW80D-vUWjw1_UPlZ-27" style="edgeStyle=orthogonalEdgeStyle;rounded=0;orthogonalLoop=1;jettySize=auto;html=1;entryX=0.5;entryY=0;entryDx=0;entryDy=0;" edge="1" parent="1" source="X78qW80D-vUWjw1_UPlZ-24" target="X78qW80D-vUWjw1_UPlZ-15">
          <mxGeometry relative="1" as="geometry" />
        </mxCell>
        <mxCell id="X78qW80D-vUWjw1_UPlZ-24" value="系统试算" style="rounded=1;whiteSpace=wrap;html=1;" vertex="1" parent="1">
          <mxGeometry x="510" y="480" width="100" height="30" as="geometry" />
        </mxCell>
        <mxCell id="X78qW80D-vUWjw1_UPlZ-33" value="" style="edgeStyle=orthogonalEdgeStyle;rounded=0;orthogonalLoop=1;jettySize=auto;html=1;" edge="1" parent="1" source="X78qW80D-vUWjw1_UPlZ-28" target="X78qW80D-vUWjw1_UPlZ-32">
          <mxGeometry relative="1" as="geometry" />
        </mxCell>
        <mxCell id="X78qW80D-vUWjw1_UPlZ-28" value="" style="whiteSpace=wrap;html=1;rounded=0;shadow=0;comic=0;labelBackgroundColor=none;strokeWidth=1;fillColor=#000000;fontFamily=Verdana;fontSize=12;align=center;rotation=0;" vertex="1" parent="1">
          <mxGeometry x="486.5" y="640" width="147" height="10" as="geometry" />
        </mxCell>
        <mxCell id="X78qW80D-vUWjw1_UPlZ-35" value="" style="edgeStyle=orthogonalEdgeStyle;rounded=0;orthogonalLoop=1;jettySize=auto;html=1;" edge="1" parent="1" source="X78qW80D-vUWjw1_UPlZ-32" target="X78qW80D-vUWjw1_UPlZ-34">
          <mxGeometry relative="1" as="geometry" />
        </mxCell>
        <mxCell id="X78qW80D-vUWjw1_UPlZ-32" value="生成还款计划" style="rounded=1;whiteSpace=wrap;html=1;" vertex="1" parent="1">
          <mxGeometry x="510" y="680" width="100" height="30" as="geometry" />
        </mxCell>
        <mxCell id="X78qW80D-vUWjw1_UPlZ-37" value="" style="edgeStyle=orthogonalEdgeStyle;rounded=0;orthogonalLoop=1;jettySize=auto;html=1;" edge="1" parent="1" source="X78qW80D-vUWjw1_UPlZ-34" target="X78qW80D-vUWjw1_UPlZ-36">
          <mxGeometry relative="1" as="geometry" />
        </mxCell>
        <mxCell id="X78qW80D-vUWjw1_UPlZ-34" value="展示还款计划" style="rounded=1;whiteSpace=wrap;html=1;" vertex="1" parent="1">
          <mxGeometry x="380" y="680" width="100" height="30" as="geometry" />
        </mxCell>
        <mxCell id="X78qW80D-vUWjw1_UPlZ-36" value="" style="shape=mxgraph.bpmn.shape;html=1;verticalLabelPosition=bottom;labelBackgroundColor=#ffffff;verticalAlign=top;perimeter=ellipsePerimeter;outline=end;symbol=terminate;rounded=0;shadow=0;comic=0;strokeWidth=1;fontFamily=Verdana;fontSize=12;align=center;" vertex="1" parent="1">
          <mxGeometry x="310" y="680" width="30" height="30" as="geometry" />
        </mxCell>
      </root>
    </mxGraphModel>
  </diagram>
</mxfile>
